<mxfile host="Electron" modified="2023-08-31T14:50:00.885Z" agent="Mozilla/5.0 (X11; Linux x86_64) AppleWebKit/537.36 (KHTML, like Gecko) draw.io/21.6.8 Chrome/114.0.5735.289 Electron/25.5.0 Safari/537.36" etag="xf9x49IBljTc9kH_ctp3" version="21.6.8" type="device">
  <diagram name="Page-1" id="2YBvvXClWsGukQMizWep">
    <mxGraphModel dx="3718" dy="3026" grid="1" gridSize="10" guides="1" tooltips="1" connect="1" arrows="1" fold="1" page="1" pageScale="1" pageWidth="850" pageHeight="1100" math="0" shadow="0">
      <root>
        <mxCell id="0" />
        <mxCell id="1" parent="0" />
        <mxCell id="Yun-V3fEDu4y12_Pn3u0-1" value="" style="rounded=0;whiteSpace=wrap;html=1;fillColor=#E6E6E6;" vertex="1" parent="1">
          <mxGeometry x="-360" y="-80" width="2120" height="1320" as="geometry" />
        </mxCell>
        <mxCell id="PqLFvpdnf3kr_ae6B5H_-176" value="" style="rounded=0;whiteSpace=wrap;html=1;fillColor=#f5f5f5;fontColor=#333333;strokeColor=#666666;" parent="1" vertex="1">
          <mxGeometry x="-300" width="800" height="1200" as="geometry" />
        </mxCell>
        <mxCell id="PqLFvpdnf3kr_ae6B5H_-174" value="" style="rounded=0;whiteSpace=wrap;html=1;fillColor=#f5f5f5;strokeColor=#666666;fontColor=#333333;" parent="1" vertex="1">
          <mxGeometry x="510" width="1190" height="1200" as="geometry" />
        </mxCell>
        <mxCell id="PqLFvpdnf3kr_ae6B5H_-167" value="" style="rounded=0;whiteSpace=wrap;html=1;fillColor=#f5f5f5;fontColor=#333333;strokeColor=#666666;" parent="1" vertex="1">
          <mxGeometry x="960" y="716" width="670" height="334" as="geometry" />
        </mxCell>
        <mxCell id="PqLFvpdnf3kr_ae6B5H_-173" value="" style="endArrow=none;html=1;rounded=0;exitX=0;exitY=0.401;exitDx=0;exitDy=0;exitPerimeter=0;" parent="1" source="PqLFvpdnf3kr_ae6B5H_-167" edge="1">
          <mxGeometry width="50" height="50" relative="1" as="geometry">
            <mxPoint x="1260" y="940" as="sourcePoint" />
            <mxPoint x="1630" y="850" as="targetPoint" />
          </mxGeometry>
        </mxCell>
        <mxCell id="PqLFvpdnf3kr_ae6B5H_-49" value="" style="shape=umlLifeline;perimeter=lifelinePerimeter;whiteSpace=wrap;html=1;container=0;dropTarget=0;collapsible=0;recursiveResize=0;outlineConnect=0;portConstraint=eastwest;newEdgeStyle={&quot;edgeStyle&quot;:&quot;elbowEdgeStyle&quot;,&quot;elbow&quot;:&quot;vertical&quot;,&quot;curved&quot;:0,&quot;rounded&quot;:0};fillColor=#dae8fc;strokeColor=#6c8ebf;" parent="1" vertex="1">
          <mxGeometry x="120" y="40" width="160" height="1120" as="geometry" />
        </mxCell>
        <mxCell id="PqLFvpdnf3kr_ae6B5H_-17" value="" style="shape=umlLifeline;perimeter=lifelinePerimeter;whiteSpace=wrap;html=1;container=0;dropTarget=0;collapsible=0;recursiveResize=0;outlineConnect=0;portConstraint=eastwest;newEdgeStyle={&quot;edgeStyle&quot;:&quot;elbowEdgeStyle&quot;,&quot;elbow&quot;:&quot;vertical&quot;,&quot;curved&quot;:0,&quot;rounded&quot;:0};fillColor=#dae8fc;strokeColor=#6c8ebf;" parent="1" vertex="1">
          <mxGeometry x="720" y="40" width="160" height="1120" as="geometry" />
        </mxCell>
        <mxCell id="PqLFvpdnf3kr_ae6B5H_-11" value="" style="shape=umlLifeline;perimeter=lifelinePerimeter;whiteSpace=wrap;html=1;container=0;dropTarget=0;collapsible=0;recursiveResize=0;outlineConnect=0;portConstraint=eastwest;newEdgeStyle={&quot;edgeStyle&quot;:&quot;elbowEdgeStyle&quot;,&quot;elbow&quot;:&quot;vertical&quot;,&quot;curved&quot;:0,&quot;rounded&quot;:0};fillColor=#dae8fc;strokeColor=#6c8ebf;" parent="1" vertex="1">
          <mxGeometry x="520" y="40" width="160" height="1120" as="geometry" />
        </mxCell>
        <mxCell id="PqLFvpdnf3kr_ae6B5H_-9" value="&lt;font style=&quot;font-size: 13px;&quot;&gt;C&lt;/font&gt;" style="ellipse;whiteSpace=wrap;html=1;aspect=fixed;fillColor=#d5e8d4;strokeColor=#82b366;" parent="1" vertex="1">
          <mxGeometry x="525" y="44.5" width="31" height="31" as="geometry" />
        </mxCell>
        <mxCell id="PqLFvpdnf3kr_ae6B5H_-10" value="SerialController" style="text;html=1;strokeColor=none;fillColor=none;align=left;verticalAlign=middle;whiteSpace=wrap;rounded=0;" parent="1" vertex="1">
          <mxGeometry x="570" y="40" width="110" height="40" as="geometry" />
        </mxCell>
        <mxCell id="PqLFvpdnf3kr_ae6B5H_-7" value="" style="shape=umlLifeline;perimeter=lifelinePerimeter;whiteSpace=wrap;html=1;container=0;dropTarget=0;collapsible=0;recursiveResize=0;outlineConnect=0;portConstraint=eastwest;newEdgeStyle={&quot;edgeStyle&quot;:&quot;elbowEdgeStyle&quot;,&quot;elbow&quot;:&quot;vertical&quot;,&quot;curved&quot;:0,&quot;rounded&quot;:0};fillColor=#dae8fc;strokeColor=#6c8ebf;" parent="1" vertex="1">
          <mxGeometry x="320" y="40" width="160" height="1120" as="geometry" />
        </mxCell>
        <mxCell id="PqLFvpdnf3kr_ae6B5H_-5" value="&lt;font style=&quot;font-size: 13px;&quot;&gt;X&lt;/font&gt;" style="ellipse;whiteSpace=wrap;html=1;aspect=fixed;fillColor=#ffe6cc;strokeColor=#d79b00;" parent="1" vertex="1">
          <mxGeometry x="324" y="44.5" width="31" height="31" as="geometry" />
        </mxCell>
        <mxCell id="PqLFvpdnf3kr_ae6B5H_-6" value="Microcontroller" style="text;html=1;strokeColor=none;fillColor=none;align=left;verticalAlign=middle;whiteSpace=wrap;rounded=0;" parent="1" vertex="1">
          <mxGeometry x="370" y="40" width="110" height="40" as="geometry" />
        </mxCell>
        <mxCell id="PqLFvpdnf3kr_ae6B5H_-15" value="&lt;font style=&quot;font-size: 13px;&quot;&gt;C&lt;/font&gt;" style="ellipse;whiteSpace=wrap;html=1;aspect=fixed;fillColor=#d5e8d4;strokeColor=#82b366;" parent="1" vertex="1">
          <mxGeometry x="724" y="44.5" width="31" height="31" as="geometry" />
        </mxCell>
        <mxCell id="PqLFvpdnf3kr_ae6B5H_-16" value="AutopilotManager" style="text;html=1;strokeColor=none;fillColor=none;align=left;verticalAlign=middle;whiteSpace=wrap;rounded=0;" parent="1" vertex="1">
          <mxGeometry x="770" y="40" width="110" height="40" as="geometry" />
        </mxCell>
        <mxCell id="PqLFvpdnf3kr_ae6B5H_-18" value="" style="shape=umlLifeline;perimeter=lifelinePerimeter;whiteSpace=wrap;html=1;container=0;dropTarget=0;collapsible=0;recursiveResize=0;outlineConnect=0;portConstraint=eastwest;newEdgeStyle={&quot;edgeStyle&quot;:&quot;elbowEdgeStyle&quot;,&quot;elbow&quot;:&quot;vertical&quot;,&quot;curved&quot;:0,&quot;rounded&quot;:0};fillColor=#dae8fc;strokeColor=#6c8ebf;" parent="1" vertex="1">
          <mxGeometry x="920" y="40" width="160" height="1120" as="geometry" />
        </mxCell>
        <mxCell id="PqLFvpdnf3kr_ae6B5H_-19" value="&lt;font style=&quot;font-size: 13px;&quot;&gt;I&lt;/font&gt;" style="ellipse;whiteSpace=wrap;html=1;aspect=fixed;fillColor=#e1d5e7;strokeColor=#9673a6;" parent="1" vertex="1">
          <mxGeometry x="924" y="44.5" width="31" height="31" as="geometry" />
        </mxCell>
        <mxCell id="PqLFvpdnf3kr_ae6B5H_-20" value="AutopilotInterface" style="text;html=1;strokeColor=none;fillColor=none;align=left;verticalAlign=middle;whiteSpace=wrap;rounded=0;" parent="1" vertex="1">
          <mxGeometry x="970" y="40" width="110" height="40" as="geometry" />
        </mxCell>
        <mxCell id="PqLFvpdnf3kr_ae6B5H_-21" value="" style="shape=umlLifeline;perimeter=lifelinePerimeter;whiteSpace=wrap;html=1;container=0;dropTarget=0;collapsible=0;recursiveResize=0;outlineConnect=0;portConstraint=eastwest;newEdgeStyle={&quot;edgeStyle&quot;:&quot;elbowEdgeStyle&quot;,&quot;elbow&quot;:&quot;vertical&quot;,&quot;curved&quot;:0,&quot;rounded&quot;:0};fillColor=#dae8fc;strokeColor=#6c8ebf;" parent="1" vertex="1">
          <mxGeometry x="1120" y="40" width="160" height="1120" as="geometry" />
        </mxCell>
        <mxCell id="PqLFvpdnf3kr_ae6B5H_-22" value="&lt;font style=&quot;font-size: 13px;&quot;&gt;C&lt;/font&gt;" style="ellipse;whiteSpace=wrap;html=1;aspect=fixed;fillColor=#d5e8d4;strokeColor=#82b366;" parent="1" vertex="1">
          <mxGeometry x="1124" y="44.5" width="31" height="31" as="geometry" />
        </mxCell>
        <mxCell id="PqLFvpdnf3kr_ae6B5H_-23" value="ManualAutopilot" style="text;html=1;strokeColor=none;fillColor=none;align=left;verticalAlign=middle;whiteSpace=wrap;rounded=0;" parent="1" vertex="1">
          <mxGeometry x="1170" y="40" width="110" height="40" as="geometry" />
        </mxCell>
        <mxCell id="PqLFvpdnf3kr_ae6B5H_-24" value="" style="shape=umlLifeline;perimeter=lifelinePerimeter;whiteSpace=wrap;html=1;container=0;dropTarget=0;collapsible=0;recursiveResize=0;outlineConnect=0;portConstraint=eastwest;newEdgeStyle={&quot;edgeStyle&quot;:&quot;elbowEdgeStyle&quot;,&quot;elbow&quot;:&quot;vertical&quot;,&quot;curved&quot;:0,&quot;rounded&quot;:0};fillColor=#dae8fc;strokeColor=#6c8ebf;" parent="1" vertex="1">
          <mxGeometry x="1320" y="40" width="160" height="1120" as="geometry" />
        </mxCell>
        <mxCell id="PqLFvpdnf3kr_ae6B5H_-25" value="&lt;font style=&quot;font-size: 13px;&quot;&gt;C&lt;/font&gt;" style="ellipse;whiteSpace=wrap;html=1;aspect=fixed;fillColor=#d5e8d4;strokeColor=#82b366;" parent="1" vertex="1">
          <mxGeometry x="1324" y="44.5" width="31" height="31" as="geometry" />
        </mxCell>
        <mxCell id="PqLFvpdnf3kr_ae6B5H_-26" value="Stabilize Autopilot" style="text;html=1;strokeColor=none;fillColor=none;align=left;verticalAlign=middle;whiteSpace=wrap;rounded=0;" parent="1" vertex="1">
          <mxGeometry x="1370" y="40" width="110" height="40" as="geometry" />
        </mxCell>
        <mxCell id="PqLFvpdnf3kr_ae6B5H_-27" value="" style="shape=umlLifeline;perimeter=lifelinePerimeter;whiteSpace=wrap;html=1;container=0;dropTarget=0;collapsible=0;recursiveResize=0;outlineConnect=0;portConstraint=eastwest;newEdgeStyle={&quot;edgeStyle&quot;:&quot;elbowEdgeStyle&quot;,&quot;elbow&quot;:&quot;vertical&quot;,&quot;curved&quot;:0,&quot;rounded&quot;:0};fillColor=#dae8fc;strokeColor=#6c8ebf;" parent="1" vertex="1">
          <mxGeometry x="1520" y="40" width="160" height="1120" as="geometry" />
        </mxCell>
        <mxCell id="PqLFvpdnf3kr_ae6B5H_-28" value="&lt;font style=&quot;font-size: 13px;&quot;&gt;C&lt;/font&gt;" style="ellipse;whiteSpace=wrap;html=1;aspect=fixed;fillColor=#d5e8d4;strokeColor=#82b366;" parent="1" vertex="1">
          <mxGeometry x="1524" y="44.5" width="31" height="31" as="geometry" />
        </mxCell>
        <mxCell id="PqLFvpdnf3kr_ae6B5H_-29" value="AutopilotUtility" style="text;html=1;strokeColor=none;fillColor=none;align=left;verticalAlign=middle;whiteSpace=wrap;rounded=0;" parent="1" vertex="1">
          <mxGeometry x="1570" y="40" width="110" height="40" as="geometry" />
        </mxCell>
        <mxCell id="PqLFvpdnf3kr_ae6B5H_-33" value="Buffers are flushed" style="shape=note;size=20;whiteSpace=wrap;html=1;fillColor=#fff2cc;strokeColor=#d6b656;" parent="1" vertex="1">
          <mxGeometry x="360" y="130" width="280" height="20" as="geometry" />
        </mxCell>
        <mxCell id="PqLFvpdnf3kr_ae6B5H_-36" style="rounded=0;orthogonalLoop=1;jettySize=auto;html=1;exitX=1;exitY=0;exitDx=0;exitDy=0;entryX=0;entryY=0;entryDx=0;entryDy=0;" parent="1" source="PqLFvpdnf3kr_ae6B5H_-34" target="PqLFvpdnf3kr_ae6B5H_-35" edge="1">
          <mxGeometry relative="1" as="geometry" />
        </mxCell>
        <mxCell id="PqLFvpdnf3kr_ae6B5H_-39" value="Write flush string" style="edgeLabel;html=1;align=center;verticalAlign=middle;resizable=0;points=[];" parent="PqLFvpdnf3kr_ae6B5H_-36" vertex="1" connectable="0">
          <mxGeometry x="-0.327" relative="1" as="geometry">
            <mxPoint x="31" as="offset" />
          </mxGeometry>
        </mxCell>
        <mxCell id="PqLFvpdnf3kr_ae6B5H_-38" style="rounded=0;orthogonalLoop=1;jettySize=auto;html=1;exitX=1;exitY=0.5;exitDx=0;exitDy=0;entryX=0;entryY=0.5;entryDx=0;entryDy=0;dashed=1;" parent="1" source="PqLFvpdnf3kr_ae6B5H_-34" target="PqLFvpdnf3kr_ae6B5H_-35" edge="1">
          <mxGeometry relative="1" as="geometry" />
        </mxCell>
        <mxCell id="PqLFvpdnf3kr_ae6B5H_-42" value="Write HandshakePacket" style="edgeLabel;html=1;align=center;verticalAlign=middle;resizable=0;points=[];" parent="PqLFvpdnf3kr_ae6B5H_-38" vertex="1" connectable="0">
          <mxGeometry x="-0.0859" y="1" relative="1" as="geometry">
            <mxPoint as="offset" />
          </mxGeometry>
        </mxCell>
        <mxCell id="PqLFvpdnf3kr_ae6B5H_-34" value="" style="rounded=0;whiteSpace=wrap;html=1;" parent="1" vertex="1">
          <mxGeometry x="395" y="180" width="10" height="110" as="geometry" />
        </mxCell>
        <mxCell id="PqLFvpdnf3kr_ae6B5H_-37" style="rounded=0;orthogonalLoop=1;jettySize=auto;html=1;exitX=0;exitY=0.25;exitDx=0;exitDy=0;entryX=1;entryY=0.25;entryDx=0;entryDy=0;" parent="1" source="PqLFvpdnf3kr_ae6B5H_-35" target="PqLFvpdnf3kr_ae6B5H_-34" edge="1">
          <mxGeometry relative="1" as="geometry" />
        </mxCell>
        <mxCell id="PqLFvpdnf3kr_ae6B5H_-40" value="Write HandshakePacket" style="edgeLabel;html=1;align=center;verticalAlign=middle;resizable=0;points=[];" parent="PqLFvpdnf3kr_ae6B5H_-37" vertex="1" connectable="0">
          <mxGeometry x="0.0486" y="-1" relative="1" as="geometry">
            <mxPoint as="offset" />
          </mxGeometry>
        </mxCell>
        <mxCell id="PqLFvpdnf3kr_ae6B5H_-35" value="" style="rounded=0;whiteSpace=wrap;html=1;" parent="1" vertex="1">
          <mxGeometry x="595" y="180" width="10" height="110" as="geometry" />
        </mxCell>
        <mxCell id="PqLFvpdnf3kr_ae6B5H_-44" value="&lt;b&gt;&lt;font style=&quot;font-size: 14px;&quot;&gt;Initialization&lt;/font&gt;&lt;/b&gt;" style="rounded=0;whiteSpace=wrap;html=1;" parent="1" vertex="1">
          <mxGeometry x="-300" y="90" width="2000" height="20" as="geometry" />
        </mxCell>
        <mxCell id="PqLFvpdnf3kr_ae6B5H_-47" value="RC Controller RX" style="text;html=1;strokeColor=none;fillColor=none;align=left;verticalAlign=middle;whiteSpace=wrap;rounded=0;" parent="1" vertex="1">
          <mxGeometry x="170" y="40" width="110" height="40" as="geometry" />
        </mxCell>
        <mxCell id="PqLFvpdnf3kr_ae6B5H_-48" value="&lt;font style=&quot;font-size: 13px;&quot;&gt;H&lt;/font&gt;" style="ellipse;whiteSpace=wrap;html=1;aspect=fixed;fillColor=#f8cecc;strokeColor=#b85450;" parent="1" vertex="1">
          <mxGeometry x="124" y="44.5" width="31" height="31" as="geometry" />
        </mxCell>
        <mxCell id="PqLFvpdnf3kr_ae6B5H_-50" value="" style="shape=umlLifeline;perimeter=lifelinePerimeter;whiteSpace=wrap;html=1;container=0;dropTarget=0;collapsible=0;recursiveResize=0;outlineConnect=0;portConstraint=eastwest;newEdgeStyle={&quot;edgeStyle&quot;:&quot;elbowEdgeStyle&quot;,&quot;elbow&quot;:&quot;vertical&quot;,&quot;curved&quot;:0,&quot;rounded&quot;:0};fillColor=#dae8fc;strokeColor=#6c8ebf;" parent="1" vertex="1">
          <mxGeometry x="-80" y="40" width="160" height="1120" as="geometry" />
        </mxCell>
        <mxCell id="PqLFvpdnf3kr_ae6B5H_-51" value="Imu" style="text;html=1;strokeColor=none;fillColor=none;align=left;verticalAlign=middle;whiteSpace=wrap;rounded=0;" parent="1" vertex="1">
          <mxGeometry x="-30" y="40" width="110" height="40" as="geometry" />
        </mxCell>
        <mxCell id="PqLFvpdnf3kr_ae6B5H_-52" value="&lt;font style=&quot;font-size: 13px;&quot;&gt;H&lt;/font&gt;" style="ellipse;whiteSpace=wrap;html=1;aspect=fixed;fillColor=#f8cecc;strokeColor=#b85450;" parent="1" vertex="1">
          <mxGeometry x="-76" y="44.5" width="31" height="31" as="geometry" />
        </mxCell>
        <mxCell id="PqLFvpdnf3kr_ae6B5H_-53" value="" style="shape=umlLifeline;perimeter=lifelinePerimeter;whiteSpace=wrap;html=1;container=0;dropTarget=0;collapsible=0;recursiveResize=0;outlineConnect=0;portConstraint=eastwest;newEdgeStyle={&quot;edgeStyle&quot;:&quot;elbowEdgeStyle&quot;,&quot;elbow&quot;:&quot;vertical&quot;,&quot;curved&quot;:0,&quot;rounded&quot;:0};fillColor=#dae8fc;strokeColor=#6c8ebf;" parent="1" vertex="1">
          <mxGeometry x="-280" y="40" width="160" height="1130" as="geometry" />
        </mxCell>
        <mxCell id="PqLFvpdnf3kr_ae6B5H_-54" value="Servos" style="text;html=1;strokeColor=none;fillColor=none;align=left;verticalAlign=middle;whiteSpace=wrap;rounded=0;" parent="1" vertex="1">
          <mxGeometry x="-230" y="40" width="110" height="40" as="geometry" />
        </mxCell>
        <mxCell id="PqLFvpdnf3kr_ae6B5H_-55" value="&lt;font style=&quot;font-size: 13px;&quot;&gt;H&lt;/font&gt;" style="ellipse;whiteSpace=wrap;html=1;aspect=fixed;fillColor=#f8cecc;strokeColor=#b85450;" parent="1" vertex="1">
          <mxGeometry x="-276" y="44.5" width="31" height="31" as="geometry" />
        </mxCell>
        <mxCell id="PqLFvpdnf3kr_ae6B5H_-56" value="&lt;b&gt;&lt;font style=&quot;font-size: 14px;&quot;&gt;Main Loop&lt;/font&gt;&lt;/b&gt;" style="rounded=0;whiteSpace=wrap;html=1;" parent="1" vertex="1">
          <mxGeometry x="-300" y="280" width="2000" height="20" as="geometry" />
        </mxCell>
        <mxCell id="PqLFvpdnf3kr_ae6B5H_-62" style="rounded=0;orthogonalLoop=1;jettySize=auto;html=1;exitX=0;exitY=0.75;exitDx=0;exitDy=0;entryX=1;entryY=0;entryDx=0;entryDy=0;" parent="1" source="PqLFvpdnf3kr_ae6B5H_-57" target="PqLFvpdnf3kr_ae6B5H_-59" edge="1">
          <mxGeometry relative="1" as="geometry" />
        </mxCell>
        <mxCell id="PqLFvpdnf3kr_ae6B5H_-63" value="Read RX data" style="edgeLabel;html=1;align=center;verticalAlign=middle;resizable=0;points=[];" parent="PqLFvpdnf3kr_ae6B5H_-62" vertex="1" connectable="0">
          <mxGeometry x="0.1364" y="1" relative="1" as="geometry">
            <mxPoint x="13" y="-1" as="offset" />
          </mxGeometry>
        </mxCell>
        <mxCell id="PqLFvpdnf3kr_ae6B5H_-57" value="" style="rounded=0;whiteSpace=wrap;html=1;" parent="1" vertex="1">
          <mxGeometry x="395" y="300" width="10" height="120" as="geometry" />
        </mxCell>
        <mxCell id="PqLFvpdnf3kr_ae6B5H_-64" style="rounded=0;orthogonalLoop=1;jettySize=auto;html=1;exitX=1;exitY=1;exitDx=0;exitDy=0;entryX=0;entryY=1;entryDx=0;entryDy=0;dashed=1;" parent="1" source="PqLFvpdnf3kr_ae6B5H_-59" target="PqLFvpdnf3kr_ae6B5H_-57" edge="1">
          <mxGeometry relative="1" as="geometry" />
        </mxCell>
        <mxCell id="PqLFvpdnf3kr_ae6B5H_-65" value="RX input data" style="edgeLabel;html=1;align=center;verticalAlign=middle;resizable=0;points=[];" parent="PqLFvpdnf3kr_ae6B5H_-64" vertex="1" connectable="0">
          <mxGeometry x="-0.0174" y="-1" relative="1" as="geometry">
            <mxPoint as="offset" />
          </mxGeometry>
        </mxCell>
        <mxCell id="PqLFvpdnf3kr_ae6B5H_-59" value="" style="rounded=0;whiteSpace=wrap;html=1;" parent="1" vertex="1">
          <mxGeometry x="195" y="390" width="10" height="30" as="geometry" />
        </mxCell>
        <mxCell id="PqLFvpdnf3kr_ae6B5H_-66" value="" style="rounded=0;whiteSpace=wrap;html=1;strokeColor=default;" parent="1" vertex="1">
          <mxGeometry x="395" y="420" width="10" height="80" as="geometry" />
        </mxCell>
        <mxCell id="PqLFvpdnf3kr_ae6B5H_-67" style="edgeStyle=orthogonalEdgeStyle;rounded=0;orthogonalLoop=1;jettySize=auto;html=1;exitX=1;exitY=0.25;exitDx=0;exitDy=0;entryX=1;entryY=0.75;entryDx=0;entryDy=0;" parent="1" source="PqLFvpdnf3kr_ae6B5H_-66" target="PqLFvpdnf3kr_ae6B5H_-66" edge="1">
          <mxGeometry relative="1" as="geometry">
            <Array as="points">
              <mxPoint x="405" y="435" />
              <mxPoint x="450" y="435" />
              <mxPoint x="450" y="480" />
            </Array>
          </mxGeometry>
        </mxCell>
        <mxCell id="PqLFvpdnf3kr_ae6B5H_-68" value="Compute state and&lt;br&gt;stick position data" style="edgeLabel;html=1;align=center;verticalAlign=middle;resizable=0;points=[];" parent="PqLFvpdnf3kr_ae6B5H_-67" vertex="1" connectable="0">
          <mxGeometry x="0.025" y="-1" relative="1" as="geometry">
            <mxPoint x="11" y="-1" as="offset" />
          </mxGeometry>
        </mxCell>
        <mxCell id="PqLFvpdnf3kr_ae6B5H_-72" style="rounded=0;orthogonalLoop=1;jettySize=auto;html=1;exitX=1;exitY=1;exitDx=0;exitDy=0;entryX=0;entryY=1;entryDx=0;entryDy=0;dashed=1;" parent="1" source="PqLFvpdnf3kr_ae6B5H_-69" target="PqLFvpdnf3kr_ae6B5H_-70" edge="1">
          <mxGeometry relative="1" as="geometry" />
        </mxCell>
        <mxCell id="PqLFvpdnf3kr_ae6B5H_-74" value="Filtered Imu data" style="edgeLabel;html=1;align=center;verticalAlign=middle;resizable=0;points=[];" parent="PqLFvpdnf3kr_ae6B5H_-72" vertex="1" connectable="0">
          <mxGeometry x="-0.0349" relative="1" as="geometry">
            <mxPoint x="7" as="offset" />
          </mxGeometry>
        </mxCell>
        <mxCell id="PqLFvpdnf3kr_ae6B5H_-69" value="" style="rounded=0;whiteSpace=wrap;html=1;" parent="1" vertex="1">
          <mxGeometry x="-5" y="530" width="10" height="30" as="geometry" />
        </mxCell>
        <mxCell id="PqLFvpdnf3kr_ae6B5H_-71" style="rounded=0;orthogonalLoop=1;jettySize=auto;html=1;exitX=0;exitY=0;exitDx=0;exitDy=0;entryX=1;entryY=0;entryDx=0;entryDy=0;" parent="1" source="PqLFvpdnf3kr_ae6B5H_-70" target="PqLFvpdnf3kr_ae6B5H_-69" edge="1">
          <mxGeometry relative="1" as="geometry" />
        </mxCell>
        <mxCell id="PqLFvpdnf3kr_ae6B5H_-73" value="Read Imu data" style="edgeLabel;html=1;align=center;verticalAlign=middle;resizable=0;points=[];" parent="PqLFvpdnf3kr_ae6B5H_-71" vertex="1" connectable="0">
          <mxGeometry x="0.0471" y="-1" relative="1" as="geometry">
            <mxPoint x="9" y="1" as="offset" />
          </mxGeometry>
        </mxCell>
        <mxCell id="PqLFvpdnf3kr_ae6B5H_-70" value="" style="rounded=0;whiteSpace=wrap;html=1;" parent="1" vertex="1">
          <mxGeometry x="395" y="530" width="10" height="30" as="geometry" />
        </mxCell>
        <mxCell id="PqLFvpdnf3kr_ae6B5H_-77" style="edgeStyle=none;rounded=0;orthogonalLoop=1;jettySize=auto;html=1;entryX=0;entryY=0.5;entryDx=0;entryDy=0;" parent="1" source="PqLFvpdnf3kr_ae6B5H_-76" target="PqLFvpdnf3kr_ae6B5H_-79" edge="1">
          <mxGeometry relative="1" as="geometry" />
        </mxCell>
        <mxCell id="PqLFvpdnf3kr_ae6B5H_-78" value="Write RcRxPacket" style="edgeLabel;html=1;align=center;verticalAlign=middle;resizable=0;points=[];" parent="PqLFvpdnf3kr_ae6B5H_-77" vertex="1" connectable="0">
          <mxGeometry x="-0.0094" relative="1" as="geometry">
            <mxPoint as="offset" />
          </mxGeometry>
        </mxCell>
        <mxCell id="PqLFvpdnf3kr_ae6B5H_-76" value="" style="rounded=0;whiteSpace=wrap;html=1;" parent="1" vertex="1">
          <mxGeometry x="395" y="500" width="10" height="30" as="geometry" />
        </mxCell>
        <mxCell id="PqLFvpdnf3kr_ae6B5H_-79" value="" style="rounded=0;whiteSpace=wrap;html=1;strokeColor=default;" parent="1" vertex="1">
          <mxGeometry x="595" y="500" width="10" height="30" as="geometry" />
        </mxCell>
        <mxCell id="PqLFvpdnf3kr_ae6B5H_-80" value="" style="rounded=0;whiteSpace=wrap;html=1;strokeColor=default;" parent="1" vertex="1">
          <mxGeometry x="595" y="560" width="10" height="30" as="geometry" />
        </mxCell>
        <mxCell id="PqLFvpdnf3kr_ae6B5H_-82" style="edgeStyle=none;rounded=0;orthogonalLoop=1;jettySize=auto;html=1;entryX=0;entryY=0.5;entryDx=0;entryDy=0;" parent="1" source="PqLFvpdnf3kr_ae6B5H_-81" target="PqLFvpdnf3kr_ae6B5H_-80" edge="1">
          <mxGeometry relative="1" as="geometry" />
        </mxCell>
        <mxCell id="PqLFvpdnf3kr_ae6B5H_-83" value="Write Imu Packet" style="edgeLabel;html=1;align=center;verticalAlign=middle;resizable=0;points=[];" parent="PqLFvpdnf3kr_ae6B5H_-82" vertex="1" connectable="0">
          <mxGeometry x="-0.0351" relative="1" as="geometry">
            <mxPoint as="offset" />
          </mxGeometry>
        </mxCell>
        <mxCell id="PqLFvpdnf3kr_ae6B5H_-81" value="" style="rounded=0;whiteSpace=wrap;html=1;" parent="1" vertex="1">
          <mxGeometry x="395" y="560" width="10" height="30" as="geometry" />
        </mxCell>
        <mxCell id="PqLFvpdnf3kr_ae6B5H_-87" style="edgeStyle=none;rounded=0;orthogonalLoop=1;jettySize=auto;html=1;exitX=1;exitY=0.5;exitDx=0;exitDy=0;entryX=0;entryY=0;entryDx=0;entryDy=0;" parent="1" source="PqLFvpdnf3kr_ae6B5H_-84" target="PqLFvpdnf3kr_ae6B5H_-86" edge="1">
          <mxGeometry relative="1" as="geometry" />
        </mxCell>
        <mxCell id="PqLFvpdnf3kr_ae6B5H_-88" value="Trigger" style="edgeLabel;html=1;align=center;verticalAlign=middle;resizable=0;points=[];" parent="PqLFvpdnf3kr_ae6B5H_-87" vertex="1" connectable="0">
          <mxGeometry x="0.0281" y="1" relative="1" as="geometry">
            <mxPoint as="offset" />
          </mxGeometry>
        </mxCell>
        <mxCell id="PqLFvpdnf3kr_ae6B5H_-84" value="" style="rounded=0;whiteSpace=wrap;html=1;strokeColor=default;" parent="1" vertex="1">
          <mxGeometry x="595" y="590" width="10" height="20" as="geometry" />
        </mxCell>
        <mxCell id="PqLFvpdnf3kr_ae6B5H_-86" value="" style="rounded=0;whiteSpace=wrap;html=1;strokeColor=default;" parent="1" vertex="1">
          <mxGeometry x="795" y="600" width="10" height="30" as="geometry" />
        </mxCell>
        <mxCell id="PqLFvpdnf3kr_ae6B5H_-89" value="" style="rounded=0;whiteSpace=wrap;html=1;strokeColor=default;" parent="1" vertex="1">
          <mxGeometry x="795" y="620" width="10" height="70" as="geometry" />
        </mxCell>
        <mxCell id="PqLFvpdnf3kr_ae6B5H_-90" style="edgeStyle=orthogonalEdgeStyle;rounded=0;orthogonalLoop=1;jettySize=auto;html=1;exitX=1;exitY=0.25;exitDx=0;exitDy=0;entryX=1;entryY=0.75;entryDx=0;entryDy=0;" parent="1" source="PqLFvpdnf3kr_ae6B5H_-89" target="PqLFvpdnf3kr_ae6B5H_-89" edge="1">
          <mxGeometry relative="1" as="geometry">
            <Array as="points">
              <mxPoint x="840" y="637" />
              <mxPoint x="840" y="672" />
              <mxPoint x="805" y="672" />
            </Array>
          </mxGeometry>
        </mxCell>
        <mxCell id="PqLFvpdnf3kr_ae6B5H_-91" value="Transition autopilot&lt;br&gt;(if required)" style="edgeLabel;html=1;align=center;verticalAlign=middle;resizable=0;points=[];" parent="PqLFvpdnf3kr_ae6B5H_-90" vertex="1" connectable="0">
          <mxGeometry x="-0.027" y="-1" relative="1" as="geometry">
            <mxPoint x="31" y="1" as="offset" />
          </mxGeometry>
        </mxCell>
        <mxCell id="PqLFvpdnf3kr_ae6B5H_-95" style="edgeStyle=none;rounded=0;orthogonalLoop=1;jettySize=auto;html=1;entryX=0;entryY=0;entryDx=0;entryDy=0;" parent="1" source="PqLFvpdnf3kr_ae6B5H_-92" target="PqLFvpdnf3kr_ae6B5H_-94" edge="1">
          <mxGeometry relative="1" as="geometry" />
        </mxCell>
        <mxCell id="PqLFvpdnf3kr_ae6B5H_-96" value="Trigger" style="edgeLabel;html=1;align=center;verticalAlign=middle;resizable=0;points=[];" parent="PqLFvpdnf3kr_ae6B5H_-95" vertex="1" connectable="0">
          <mxGeometry x="-0.0089" relative="1" as="geometry">
            <mxPoint as="offset" />
          </mxGeometry>
        </mxCell>
        <mxCell id="PqLFvpdnf3kr_ae6B5H_-92" value="" style="rounded=0;whiteSpace=wrap;html=1;strokeColor=default;" parent="1" vertex="1">
          <mxGeometry x="795" y="690" width="10" height="30" as="geometry" />
        </mxCell>
        <mxCell id="PqLFvpdnf3kr_ae6B5H_-94" value="" style="rounded=0;whiteSpace=wrap;html=1;strokeColor=default;" parent="1" vertex="1">
          <mxGeometry x="995" y="704" width="10" height="16" as="geometry" />
        </mxCell>
        <mxCell id="PqLFvpdnf3kr_ae6B5H_-99" style="edgeStyle=none;rounded=0;orthogonalLoop=1;jettySize=auto;html=1;entryX=0;entryY=0;entryDx=0;entryDy=0;" parent="1" source="PqLFvpdnf3kr_ae6B5H_-97" target="PqLFvpdnf3kr_ae6B5H_-98" edge="1">
          <mxGeometry relative="1" as="geometry" />
        </mxCell>
        <mxCell id="PqLFvpdnf3kr_ae6B5H_-100" value="Trigger impl" style="edgeLabel;html=1;align=center;verticalAlign=middle;resizable=0;points=[];" parent="PqLFvpdnf3kr_ae6B5H_-99" vertex="1" connectable="0">
          <mxGeometry x="-0.0027" y="1" relative="1" as="geometry">
            <mxPoint as="offset" />
          </mxGeometry>
        </mxCell>
        <mxCell id="PqLFvpdnf3kr_ae6B5H_-97" value="" style="rounded=0;whiteSpace=wrap;html=1;strokeColor=default;" parent="1" vertex="1">
          <mxGeometry x="995" y="720" width="10" height="30" as="geometry" />
        </mxCell>
        <mxCell id="PqLFvpdnf3kr_ae6B5H_-98" value="" style="rounded=0;whiteSpace=wrap;html=1;strokeColor=default;" parent="1" vertex="1">
          <mxGeometry x="1195" y="735" width="10" height="25" as="geometry" />
        </mxCell>
        <mxCell id="PqLFvpdnf3kr_ae6B5H_-101" value="" style="rounded=0;whiteSpace=wrap;html=1;strokeColor=default;" parent="1" vertex="1">
          <mxGeometry x="1595" y="760" width="10" height="40" as="geometry" />
        </mxCell>
        <mxCell id="PqLFvpdnf3kr_ae6B5H_-103" style="edgeStyle=none;rounded=0;orthogonalLoop=1;jettySize=auto;html=1;entryX=0;entryY=0;entryDx=0;entryDy=0;exitX=1;exitY=0;exitDx=0;exitDy=0;" parent="1" source="PqLFvpdnf3kr_ae6B5H_-107" target="PqLFvpdnf3kr_ae6B5H_-101" edge="1">
          <mxGeometry relative="1" as="geometry">
            <mxPoint x="1205" y="764.9367088607594" as="sourcePoint" />
          </mxGeometry>
        </mxCell>
        <mxCell id="PqLFvpdnf3kr_ae6B5H_-104" value="Bind all values" style="edgeLabel;html=1;align=center;verticalAlign=middle;resizable=0;points=[];" parent="PqLFvpdnf3kr_ae6B5H_-103" vertex="1" connectable="0">
          <mxGeometry x="0.0059" y="3" relative="1" as="geometry">
            <mxPoint as="offset" />
          </mxGeometry>
        </mxCell>
        <mxCell id="PqLFvpdnf3kr_ae6B5H_-106" style="edgeStyle=none;rounded=0;orthogonalLoop=1;jettySize=auto;html=1;entryX=1;entryY=1;entryDx=0;entryDy=0;exitX=0;exitY=1;exitDx=0;exitDy=0;dashed=1;" parent="1" source="PqLFvpdnf3kr_ae6B5H_-101" target="PqLFvpdnf3kr_ae6B5H_-107" edge="1">
          <mxGeometry relative="1" as="geometry">
            <mxPoint x="1290" y="795" as="targetPoint" />
            <mxPoint x="1595" y="795" as="sourcePoint" />
          </mxGeometry>
        </mxCell>
        <mxCell id="PqLFvpdnf3kr_ae6B5H_-108" value="Bound values" style="edgeLabel;html=1;align=center;verticalAlign=middle;resizable=0;points=[];" parent="PqLFvpdnf3kr_ae6B5H_-106" vertex="1" connectable="0">
          <mxGeometry x="-0.0036" relative="1" as="geometry">
            <mxPoint as="offset" />
          </mxGeometry>
        </mxCell>
        <mxCell id="PqLFvpdnf3kr_ae6B5H_-107" value="" style="rounded=0;whiteSpace=wrap;html=1;strokeColor=default;" parent="1" vertex="1">
          <mxGeometry x="1195" y="760" width="10" height="40" as="geometry" />
        </mxCell>
        <mxCell id="PqLFvpdnf3kr_ae6B5H_-113" style="edgeStyle=none;rounded=0;orthogonalLoop=1;jettySize=auto;html=1;exitX=0;exitY=1;exitDx=0;exitDy=0;entryX=1;entryY=1;entryDx=0;entryDy=0;dashed=1;" parent="1" source="PqLFvpdnf3kr_ae6B5H_-110" target="PqLFvpdnf3kr_ae6B5H_-111" edge="1">
          <mxGeometry relative="1" as="geometry" />
        </mxCell>
        <mxCell id="PqLFvpdnf3kr_ae6B5H_-114" value="Control surface data" style="edgeLabel;html=1;align=center;verticalAlign=middle;resizable=0;points=[];" parent="PqLFvpdnf3kr_ae6B5H_-113" vertex="1" connectable="0">
          <mxGeometry x="0.0667" y="-1" relative="1" as="geometry">
            <mxPoint x="6" y="1" as="offset" />
          </mxGeometry>
        </mxCell>
        <mxCell id="PqLFvpdnf3kr_ae6B5H_-110" value="" style="rounded=0;whiteSpace=wrap;html=1;strokeColor=default;" parent="1" vertex="1">
          <mxGeometry x="1195" y="800" width="10" height="25" as="geometry" />
        </mxCell>
        <mxCell id="PqLFvpdnf3kr_ae6B5H_-111" value="" style="rounded=0;whiteSpace=wrap;html=1;strokeColor=default;" parent="1" vertex="1">
          <mxGeometry x="995" y="800" width="10" height="25" as="geometry" />
        </mxCell>
        <mxCell id="PqLFvpdnf3kr_ae6B5H_-115" value="" style="rounded=0;whiteSpace=wrap;html=1;strokeColor=default;" parent="1" vertex="1">
          <mxGeometry x="995" y="750" width="10" height="50" as="geometry" />
        </mxCell>
        <mxCell id="PqLFvpdnf3kr_ae6B5H_-119" style="edgeStyle=none;rounded=0;orthogonalLoop=1;jettySize=auto;html=1;entryX=0;entryY=0;entryDx=0;entryDy=0;" parent="1" source="PqLFvpdnf3kr_ae6B5H_-121" target="PqLFvpdnf3kr_ae6B5H_-122" edge="1">
          <mxGeometry relative="1" as="geometry" />
        </mxCell>
        <mxCell id="PqLFvpdnf3kr_ae6B5H_-120" value="Trigger impl" style="edgeLabel;html=1;align=center;verticalAlign=middle;resizable=0;points=[];" parent="PqLFvpdnf3kr_ae6B5H_-119" vertex="1" connectable="0">
          <mxGeometry x="-0.0027" y="1" relative="1" as="geometry">
            <mxPoint as="offset" />
          </mxGeometry>
        </mxCell>
        <mxCell id="PqLFvpdnf3kr_ae6B5H_-121" value="" style="rounded=0;whiteSpace=wrap;html=1;strokeColor=default;" parent="1" vertex="1">
          <mxGeometry x="995" y="876" width="10" height="30" as="geometry" />
        </mxCell>
        <mxCell id="PqLFvpdnf3kr_ae6B5H_-122" value="" style="rounded=0;whiteSpace=wrap;html=1;strokeColor=default;" parent="1" vertex="1">
          <mxGeometry x="1395" y="891" width="10" height="25" as="geometry" />
        </mxCell>
        <mxCell id="PqLFvpdnf3kr_ae6B5H_-123" value="" style="rounded=0;whiteSpace=wrap;html=1;strokeColor=default;" parent="1" vertex="1">
          <mxGeometry x="1595" y="973" width="10" height="40" as="geometry" />
        </mxCell>
        <mxCell id="PqLFvpdnf3kr_ae6B5H_-124" style="edgeStyle=none;rounded=0;orthogonalLoop=1;jettySize=auto;html=1;entryX=0;entryY=0;entryDx=0;entryDy=0;exitX=1;exitY=0;exitDx=0;exitDy=0;" parent="1" source="PqLFvpdnf3kr_ae6B5H_-128" target="PqLFvpdnf3kr_ae6B5H_-123" edge="1">
          <mxGeometry relative="1" as="geometry">
            <mxPoint x="1205" y="977.9367088607594" as="sourcePoint" />
          </mxGeometry>
        </mxCell>
        <mxCell id="PqLFvpdnf3kr_ae6B5H_-125" value="Bind all values" style="edgeLabel;html=1;align=center;verticalAlign=middle;resizable=0;points=[];" parent="PqLFvpdnf3kr_ae6B5H_-124" vertex="1" connectable="0">
          <mxGeometry x="0.0059" y="3" relative="1" as="geometry">
            <mxPoint as="offset" />
          </mxGeometry>
        </mxCell>
        <mxCell id="PqLFvpdnf3kr_ae6B5H_-126" style="edgeStyle=none;rounded=0;orthogonalLoop=1;jettySize=auto;html=1;entryX=1;entryY=1;entryDx=0;entryDy=0;exitX=0;exitY=1;exitDx=0;exitDy=0;dashed=1;" parent="1" source="PqLFvpdnf3kr_ae6B5H_-123" target="PqLFvpdnf3kr_ae6B5H_-128" edge="1">
          <mxGeometry relative="1" as="geometry">
            <mxPoint x="1290" y="1008" as="targetPoint" />
            <mxPoint x="1595" y="1008" as="sourcePoint" />
          </mxGeometry>
        </mxCell>
        <mxCell id="PqLFvpdnf3kr_ae6B5H_-127" value="Bound values" style="edgeLabel;html=1;align=center;verticalAlign=middle;resizable=0;points=[];" parent="PqLFvpdnf3kr_ae6B5H_-126" vertex="1" connectable="0">
          <mxGeometry x="-0.0036" relative="1" as="geometry">
            <mxPoint as="offset" />
          </mxGeometry>
        </mxCell>
        <mxCell id="PqLFvpdnf3kr_ae6B5H_-128" value="" style="rounded=0;whiteSpace=wrap;html=1;strokeColor=default;" parent="1" vertex="1">
          <mxGeometry x="1395" y="973" width="10" height="40" as="geometry" />
        </mxCell>
        <mxCell id="PqLFvpdnf3kr_ae6B5H_-129" style="edgeStyle=none;rounded=0;orthogonalLoop=1;jettySize=auto;html=1;exitX=0;exitY=1;exitDx=0;exitDy=0;entryX=1;entryY=1;entryDx=0;entryDy=0;dashed=1;" parent="1" source="PqLFvpdnf3kr_ae6B5H_-131" target="PqLFvpdnf3kr_ae6B5H_-132" edge="1">
          <mxGeometry relative="1" as="geometry" />
        </mxCell>
        <mxCell id="PqLFvpdnf3kr_ae6B5H_-130" value="Control surface data" style="edgeLabel;html=1;align=center;verticalAlign=middle;resizable=0;points=[];" parent="PqLFvpdnf3kr_ae6B5H_-129" vertex="1" connectable="0">
          <mxGeometry x="0.0667" y="-1" relative="1" as="geometry">
            <mxPoint x="13" y="1" as="offset" />
          </mxGeometry>
        </mxCell>
        <mxCell id="PqLFvpdnf3kr_ae6B5H_-131" value="" style="rounded=0;whiteSpace=wrap;html=1;strokeColor=default;" parent="1" vertex="1">
          <mxGeometry x="1395" y="1013.48" width="10" height="25" as="geometry" />
        </mxCell>
        <mxCell id="PqLFvpdnf3kr_ae6B5H_-132" value="" style="rounded=0;whiteSpace=wrap;html=1;strokeColor=default;" parent="1" vertex="1">
          <mxGeometry x="995" y="1013.48" width="10" height="25" as="geometry" />
        </mxCell>
        <mxCell id="PqLFvpdnf3kr_ae6B5H_-133" value="" style="rounded=0;whiteSpace=wrap;html=1;strokeColor=default;" parent="1" vertex="1">
          <mxGeometry x="995" y="906" width="10" height="50" as="geometry" />
        </mxCell>
        <mxCell id="PqLFvpdnf3kr_ae6B5H_-135" value="" style="rounded=0;whiteSpace=wrap;html=1;strokeColor=default;" parent="1" vertex="1">
          <mxGeometry x="1395" y="916" width="10" height="40" as="geometry" />
        </mxCell>
        <mxCell id="PqLFvpdnf3kr_ae6B5H_-136" style="edgeStyle=orthogonalEdgeStyle;rounded=0;orthogonalLoop=1;jettySize=auto;html=1;exitX=1;exitY=0;exitDx=0;exitDy=0;entryX=1;entryY=1;entryDx=0;entryDy=0;" parent="1" source="PqLFvpdnf3kr_ae6B5H_-135" target="PqLFvpdnf3kr_ae6B5H_-135" edge="1">
          <mxGeometry relative="1" as="geometry">
            <Array as="points">
              <mxPoint x="1440" y="916" />
              <mxPoint x="1440" y="956" />
            </Array>
          </mxGeometry>
        </mxCell>
        <mxCell id="PqLFvpdnf3kr_ae6B5H_-137" value="Compute PID" style="edgeLabel;html=1;align=center;verticalAlign=middle;resizable=0;points=[];" parent="PqLFvpdnf3kr_ae6B5H_-136" vertex="1" connectable="0">
          <mxGeometry x="-0.004" y="-2" relative="1" as="geometry">
            <mxPoint x="22" as="offset" />
          </mxGeometry>
        </mxCell>
        <mxCell id="PqLFvpdnf3kr_ae6B5H_-139" value="" style="rounded=0;whiteSpace=wrap;html=1;strokeColor=default;" parent="1" vertex="1">
          <mxGeometry x="795" y="1038.48" width="10" height="25" as="geometry" />
        </mxCell>
        <mxCell id="PqLFvpdnf3kr_ae6B5H_-141" style="edgeStyle=none;rounded=0;orthogonalLoop=1;jettySize=auto;html=1;exitX=0;exitY=1;exitDx=0;exitDy=0;entryX=1;entryY=1;entryDx=0;entryDy=0;dashed=1;" parent="1" source="PqLFvpdnf3kr_ae6B5H_-140" target="PqLFvpdnf3kr_ae6B5H_-139" edge="1">
          <mxGeometry relative="1" as="geometry" />
        </mxCell>
        <mxCell id="PqLFvpdnf3kr_ae6B5H_-142" value="Control surface data" style="edgeLabel;html=1;align=center;verticalAlign=middle;resizable=0;points=[];" parent="PqLFvpdnf3kr_ae6B5H_-141" vertex="1" connectable="0">
          <mxGeometry x="0.0165" relative="1" as="geometry">
            <mxPoint as="offset" />
          </mxGeometry>
        </mxCell>
        <mxCell id="PqLFvpdnf3kr_ae6B5H_-140" value="" style="rounded=0;whiteSpace=wrap;html=1;strokeColor=default;" parent="1" vertex="1">
          <mxGeometry x="995" y="1038.48" width="10" height="25" as="geometry" />
        </mxCell>
        <mxCell id="PqLFvpdnf3kr_ae6B5H_-143" value="" style="rounded=0;whiteSpace=wrap;html=1;strokeColor=default;" parent="1" vertex="1">
          <mxGeometry x="595" y="1063.48" width="10" height="25" as="geometry" />
        </mxCell>
        <mxCell id="PqLFvpdnf3kr_ae6B5H_-144" value="" style="rounded=0;whiteSpace=wrap;html=1;strokeColor=default;" parent="1" vertex="1">
          <mxGeometry x="795" y="1063.48" width="10" height="25" as="geometry" />
        </mxCell>
        <mxCell id="PqLFvpdnf3kr_ae6B5H_-145" style="edgeStyle=none;rounded=0;orthogonalLoop=1;jettySize=auto;html=1;exitX=0;exitY=1;exitDx=0;exitDy=0;entryX=1;entryY=1;entryDx=0;entryDy=0;dashed=1;" parent="1" source="PqLFvpdnf3kr_ae6B5H_-144" target="PqLFvpdnf3kr_ae6B5H_-143" edge="1">
          <mxGeometry relative="1" as="geometry" />
        </mxCell>
        <mxCell id="PqLFvpdnf3kr_ae6B5H_-146" value="Control surface data" style="edgeLabel;html=1;align=center;verticalAlign=middle;resizable=0;points=[];" parent="PqLFvpdnf3kr_ae6B5H_-145" vertex="1" connectable="0">
          <mxGeometry x="0.0165" relative="1" as="geometry">
            <mxPoint as="offset" />
          </mxGeometry>
        </mxCell>
        <mxCell id="PqLFvpdnf3kr_ae6B5H_-147" value="" style="rounded=0;whiteSpace=wrap;html=1;strokeColor=default;" parent="1" vertex="1">
          <mxGeometry x="995" y="826" width="10" height="50" as="geometry" />
        </mxCell>
        <mxCell id="PqLFvpdnf3kr_ae6B5H_-148" value="" style="rounded=0;whiteSpace=wrap;html=1;strokeColor=default;" parent="1" vertex="1">
          <mxGeometry x="995" y="956" width="10" height="57" as="geometry" />
        </mxCell>
        <mxCell id="PqLFvpdnf3kr_ae6B5H_-149" value="" style="rounded=0;whiteSpace=wrap;html=1;strokeColor=default;" parent="1" vertex="1">
          <mxGeometry x="1395" y="956" width="10" height="17" as="geometry" />
        </mxCell>
        <mxCell id="PqLFvpdnf3kr_ae6B5H_-150" value="" style="rounded=0;whiteSpace=wrap;html=1;strokeColor=default;" parent="1" vertex="1">
          <mxGeometry x="795" y="720" width="10" height="320" as="geometry" />
        </mxCell>
        <mxCell id="PqLFvpdnf3kr_ae6B5H_-151" style="edgeStyle=none;rounded=0;orthogonalLoop=1;jettySize=auto;html=1;entryX=0;entryY=0.5;entryDx=0;entryDy=0;startArrow=classic;startFill=1;endArrow=none;endFill=0;" parent="1" source="PqLFvpdnf3kr_ae6B5H_-153" target="PqLFvpdnf3kr_ae6B5H_-154" edge="1">
          <mxGeometry relative="1" as="geometry" />
        </mxCell>
        <mxCell id="PqLFvpdnf3kr_ae6B5H_-152" value="Write ControlSurfacePacket" style="edgeLabel;html=1;align=center;verticalAlign=middle;resizable=0;points=[];" parent="PqLFvpdnf3kr_ae6B5H_-151" vertex="1" connectable="0">
          <mxGeometry x="-0.0351" relative="1" as="geometry">
            <mxPoint as="offset" />
          </mxGeometry>
        </mxCell>
        <mxCell id="PqLFvpdnf3kr_ae6B5H_-153" value="" style="rounded=0;whiteSpace=wrap;html=1;" parent="1" vertex="1">
          <mxGeometry x="395" y="1088.48" width="10" height="30" as="geometry" />
        </mxCell>
        <mxCell id="PqLFvpdnf3kr_ae6B5H_-154" value="" style="rounded=0;whiteSpace=wrap;html=1;strokeColor=default;" parent="1" vertex="1">
          <mxGeometry x="595" y="1088.48" width="10" height="30" as="geometry" />
        </mxCell>
        <mxCell id="PqLFvpdnf3kr_ae6B5H_-155" value="" style="rounded=0;whiteSpace=wrap;html=1;strokeColor=default;" parent="1" vertex="1">
          <mxGeometry x="595" y="610" width="10" height="460" as="geometry" />
        </mxCell>
        <mxCell id="PqLFvpdnf3kr_ae6B5H_-156" value="" style="rounded=0;whiteSpace=wrap;html=1;strokeColor=default;" parent="1" vertex="1">
          <mxGeometry x="595" y="300" width="10" height="860" as="geometry" />
        </mxCell>
        <mxCell id="PqLFvpdnf3kr_ae6B5H_-157" value="" style="rounded=0;whiteSpace=wrap;html=1;strokeColor=default;" parent="1" vertex="1">
          <mxGeometry x="795" y="600" width="10" height="490" as="geometry" />
        </mxCell>
        <mxCell id="PqLFvpdnf3kr_ae6B5H_-158" value="" style="rounded=0;whiteSpace=wrap;html=1;strokeColor=default;" parent="1" vertex="1">
          <mxGeometry x="995" y="704" width="10" height="360" as="geometry" />
        </mxCell>
        <mxCell id="PqLFvpdnf3kr_ae6B5H_-159" value="" style="rounded=0;whiteSpace=wrap;html=1;strokeColor=default;" parent="1" vertex="1">
          <mxGeometry x="1195" y="735" width="10" height="90" as="geometry" />
        </mxCell>
        <mxCell id="PqLFvpdnf3kr_ae6B5H_-160" value="" style="rounded=0;whiteSpace=wrap;html=1;strokeColor=default;" parent="1" vertex="1">
          <mxGeometry x="1395" y="891" width="10" height="149" as="geometry" />
        </mxCell>
        <mxCell id="PqLFvpdnf3kr_ae6B5H_-161" value="" style="rounded=0;whiteSpace=wrap;html=1;strokeColor=default;" parent="1" vertex="1">
          <mxGeometry x="395" y="300" width="10" height="640" as="geometry" />
        </mxCell>
        <mxCell id="PqLFvpdnf3kr_ae6B5H_-162" style="edgeStyle=none;rounded=0;orthogonalLoop=1;jettySize=auto;html=1;entryX=0;entryY=0.5;entryDx=0;entryDy=0;startArrow=classic;startFill=1;endArrow=none;endFill=0;exitX=1;exitY=0;exitDx=0;exitDy=0;" parent="1" source="PqLFvpdnf3kr_ae6B5H_-164" target="PqLFvpdnf3kr_ae6B5H_-165" edge="1">
          <mxGeometry relative="1" as="geometry">
            <mxPoint x="395" y="1144.52" as="targetPoint" />
          </mxGeometry>
        </mxCell>
        <mxCell id="PqLFvpdnf3kr_ae6B5H_-163" value="Write servo data" style="edgeLabel;html=1;align=center;verticalAlign=middle;resizable=0;points=[];" parent="PqLFvpdnf3kr_ae6B5H_-162" vertex="1" connectable="0">
          <mxGeometry x="-0.0351" relative="1" as="geometry">
            <mxPoint as="offset" />
          </mxGeometry>
        </mxCell>
        <mxCell id="PqLFvpdnf3kr_ae6B5H_-164" value="" style="rounded=0;whiteSpace=wrap;html=1;" parent="1" vertex="1">
          <mxGeometry x="-205" y="1134" width="10" height="30" as="geometry" />
        </mxCell>
        <mxCell id="PqLFvpdnf3kr_ae6B5H_-165" value="" style="rounded=0;whiteSpace=wrap;html=1;" parent="1" vertex="1">
          <mxGeometry x="395" y="1118.48" width="10" height="30" as="geometry" />
        </mxCell>
        <mxCell id="PqLFvpdnf3kr_ae6B5H_-166" value="" style="rounded=0;whiteSpace=wrap;html=1;strokeColor=default;" parent="1" vertex="1">
          <mxGeometry x="395" y="300" width="10" height="860" as="geometry" />
        </mxCell>
        <mxCell id="PqLFvpdnf3kr_ae6B5H_-60" value="All implicit read calls are blocking and carry&lt;br&gt;a timeout. Timeout behaviour is &lt;b&gt;not&lt;/b&gt;&amp;nbsp;modelled&lt;br&gt;in this diagram." style="shape=note;size=20;whiteSpace=wrap;html=1;fillColor=#fff2cc;strokeColor=#d6b656;" parent="1" vertex="1">
          <mxGeometry x="360" y="320" width="280" height="50" as="geometry" />
        </mxCell>
        <mxCell id="PqLFvpdnf3kr_ae6B5H_-171" value="&lt;b&gt;ManualAutopilot Enabled&lt;/b&gt;" style="text;html=1;strokeColor=none;fillColor=none;align=center;verticalAlign=middle;whiteSpace=wrap;rounded=0;" parent="1" vertex="1">
          <mxGeometry x="1212.5" y="716" width="165" height="24" as="geometry" />
        </mxCell>
        <mxCell id="PqLFvpdnf3kr_ae6B5H_-172" value="&lt;b&gt;StabilizeAutopilot Enabled&lt;/b&gt;" style="text;html=1;strokeColor=none;fillColor=none;align=center;verticalAlign=middle;whiteSpace=wrap;rounded=0;" parent="1" vertex="1">
          <mxGeometry x="1212.5" y="852" width="165" height="24" as="geometry" />
        </mxCell>
        <mxCell id="PqLFvpdnf3kr_ae6B5H_-175" value="System on Module" style="rounded=0;whiteSpace=wrap;html=1;" parent="1" vertex="1">
          <mxGeometry x="510" y="-30" width="90" height="30" as="geometry" />
        </mxCell>
        <mxCell id="PqLFvpdnf3kr_ae6B5H_-177" value="Microcontroller" style="rounded=0;whiteSpace=wrap;html=1;" parent="1" vertex="1">
          <mxGeometry x="-300" y="-30" width="90" height="30" as="geometry" />
        </mxCell>
      </root>
    </mxGraphModel>
  </diagram>
</mxfile>
